<?xml version="1.0" encoding="UTF-8"?>
<svg id="Layer_2" data-name="Layer 2" xmlns="http://www.w3.org/2000/svg" viewBox="0 0 1619.86 2178.92">
  <defs>
    <style>
      .cls-1 {
        fill: #f5f0e8;
        stroke-width: 0px;
      }
    </style>
  </defs>
  <g id="Layer_1-2" data-name="Layer 1">
    <g id="ckQAwe.tif">
      <path class="cls-1" d="m672.37,2047.61c-50.41,65.64-125.46,112.31-206.97,126.62-81.52,14.3-168.69-4.37-236.11-52.37-128.97-91.82-165.81-282.28-100.76-426.62,44.39-98.5,131.01-177.74,233.99-210.42,102.98-32.68,220.73-17.36,310.34,43,1.97-118.95,3.93-244.79,5.9-363.73,0,0,70.58-4.87,105.87-10.76-.14,256.86-.27,513.72-.41,770.58-.03,60.92.04,122.69,15.89,181.51,4.46,16.56,11.38,34.3,26.53,42.34,8.88,4.72,19.3,5.33,29.34,5.84,118.27,6.05,242.21,11.04,349.18-39.77,84.55-40.16,150.86-112.66,196.14-194.59,79.25-143.39,96.47-321.84,36.84-474.43-95.69-244.89-364.3-354.57-613.57-329.65-143.6,14.35-293.03,33.03-432.45-15.74C171.36,1022.21-5.31,811.42.12,570.57,6.04,308.2,195.89,102.44,440.64,28.14c19.08-5.79,38.42-10.72,57.94-14.78C550.94,2.47,603.93-.53,657.27.07c127.59,1.45,249.28,31.02,367.65,76.62,11.32,4.36,22.54,9,34.01,12.91,5.72,1.95,7.8,4.96,7.91,11,.58,33.24,1.61,66.47,2.37,99.7,1.25,53.88,2.41,107.77,3.59,161.66.02.9-.24,1.81-.76,5.56-2.89-5.49-4.75-8.91-6.51-12.38-49.36-97.5-116.08-180.24-205.89-243.61-60.23-42.5-126.05-71.43-199.31-81.27C493.27,7.82,325.22,73.04,236.83,250c-29.53,59.11-48.22,121.28-54.69,187.02-21.06,214.14,42.46,460.5,224.28,591.93,80.84,58.44,177.33,77.36,275.85,70.33,85.75-6.12,169.77-24.14,255.91-27.63,90.07-3.66,181,5.44,267.49,31.43,145.4,43.69,278.45,138.15,351.89,271.03,80.81,146.23,82.21,332.04,8.75,482.1-73.46,150.05-218.32,261.8-380.85,300.51-96.07,22.88-196.06,21.51-294.78,18.89-46.87-1.24-95.08-3.03-137.99-21.93-42.91-18.9-79.78-59.19-80.34-106.07Zm-2.19-211.78c1.3,0-1.31-119.9-.9-177.34.06-8.47-6.55-16.02-12.13-22.01-38.91-41.8-74.67-68.94-126.65-92.77-52.11-23.89-106.74-32.85-163.03-21.28-79.55,16.36-129.81,68.57-159.5,141.07-21.25,51.89-21.07,106.97-14.16,162,11.73,93.45,51.08,172.13,124.26,232.78,58.22,48.25,125.14,68.24,199.87,58.87,63.57-7.97,111.31-43.13,148.79-93.51,2.27-3.05,3.3-7.71,3.31-11.63.2-58.73.14-117.46.14-176.19Z"/>
    </g>
  </g>
</svg>